<mxfile><diagram id="RwDIga07ruEbQAkyS30a" name="Page-1"><mxGraphModel dx="906" dy="647" grid="1" gridSize="10" guides="1" tooltips="1" connect="1" arrows="1" fold="1" page="1" pageScale="1" pageWidth="827" pageHeight="1169" math="0" shadow="0"><root><mxCell id="0"/><mxCell id="1" parent="0"/><mxCell id="2" value="It you want this do like&amp;nbsp;" style="ellipse;whiteSpace=wrap;html=1;aspect=fixed;fillColor=#a20025;fontColor=#ffffff;strokeColor=#6F0000;" vertex="1" parent="1"><mxGeometry x="390" y="460" width="80" height="80" as="geometry"/></mxCell><mxCell id="9" style="edgeStyle=none;html=1;exitX=0.5;exitY=1;exitDx=0;exitDy=0;exitPerimeter=0;" edge="1" parent="1" source="3" target="2"><mxGeometry relative="1" as="geometry"/></mxCell><mxCell id="3" value="this is a data base" style="shape=cylinder3;whiteSpace=wrap;html=1;boundedLbl=1;backgroundOutline=1;size=15;fillColor=#1ba1e2;fontColor=#ffffff;strokeColor=#006EAF;fontFamily=Times New Roman;fontStyle=1" vertex="1" parent="1"><mxGeometry x="400" y="320" width="60" height="80" as="geometry"/></mxCell><mxCell id="8" style="edgeStyle=none;html=1;exitX=0.5;exitY=1;exitDx=0;exitDy=0;" edge="1" parent="1" source="4" target="3"><mxGeometry relative="1" as="geometry"/></mxCell><mxCell id="4" value="this is jatin" style="rounded=1;whiteSpace=wrap;html=1;fillColor=#60a917;fontColor=#ffffff;strokeColor=#2D7600;fontStyle=1" vertex="1" parent="1"><mxGeometry x="370" y="190" width="120" height="60" as="geometry"/></mxCell><mxCell id="7" style="edgeStyle=none;html=1;exitX=0.5;exitY=1;exitDx=0;exitDy=0;" edge="1" parent="1" source="5" target="4"><mxGeometry relative="1" as="geometry"/></mxCell><mxCell id="5" value="&lt;h1&gt;hi&lt;/h1&gt;" style="rounded=0;whiteSpace=wrap;html=1;" vertex="1" parent="1"><mxGeometry x="370" y="60" width="120" height="60" as="geometry"/></mxCell></root></mxGraphModel></diagram></mxfile>